<svg width="512" height="512" xmlns="http://www.w3.org/2000/svg">
    <path
        d="M256 0c141.385 0 256 114.615 256 256S397.385 512 256 512 0 397.385 0 256 114.615 0 256 0zm84.455 120-.989.005c-32.623.305-65.535 15.83-73.734 69.633l-1.471 10.016h-69.986l11.186-68.236.033-.239c.43-3.545-1.582-5.663-5.176-5.663h-35.082l-.251.003c-3.158.074-5.09 1.567-5.626 5.161l-11.187 68.975H96.376l-.273.002c-3.68.07-5.618 1.561-6.156 5.162l-3.857 27.666-.033.239c-.43 3.545 1.582 5.663 5.176 5.663h51.429l-10.102 81.78-.234 1.742C125.088 379.019 164.33 398 200.153 398c23.016 0 43.848-7.899 58.779-22.913C272.292 391.922 294.097 398 315.24 398c34.601 0 60.184-14.922 70.122-24.87 2.025-2.027 2.76-4.422 1.105-7.554l-9.755-19.528-.131-.245c-2.2-4.013-5.279-4.498-8.887-2.15-10.123 6.632-25.03 13.817-43.067 13.817s-36.994-8.659-32.024-40.715l2.576-16.949 13.804-4.79 2.096-.74C379.86 269.6 408 224.42 408 184.295 408 147.45 384.81 120 340.455 120zm-81.877 118.387-5.361 36.549-37.914 13.08-.274.1c-2.994 1.115-5.264 2.956-5.8 6.532l-4.049 29.477-.027.2c-.444 3.61 1.747 6.961 5.18 5.695l36.487-12.85a3.174 3.174 0 0 0-.004.043c-.274 3.423-.645 7.314-1.479 9.409-6.98 17.153-18.368 30.801-38.205 30.801-15.98 0-32.51-8.668-28.102-39.286l9.735-79.75h69.813zm81.394-77.57c17.614 0 23.918 12.831 23.918 28.08 0 24.545-18.17 51.88-62.856 70.103l9.642-62.852.124-.77c4.156-25.266 14.12-34.56 29.172-34.56z"
        fill="#0EBEAB" fill-rule="evenodd" />
</svg>